<?xml version="1.0" encoding="utf-8"?>
<!-- Generator: Adobe Illustrator 15.0.0, SVG Export Plug-In . SVG Version: 6.00 Build 0)  -->
<!DOCTYPE svg PUBLIC "-//W3C//DTD SVG 1.1//EN" "http://www.w3.org/Graphics/SVG/1.1/DTD/svg11.dtd">
<svg version="1.1" id="Layer_1" xmlns="http://www.w3.org/2000/svg" xmlns:xlink="http://www.w3.org/1999/xlink" x="0px" y="0px"
	 width="792px" height="612px" viewBox="0 0 792 612" enable-background="new 0 0 792 612" xml:space="preserve">
<path fill-rule="evenodd" clip-rule="evenodd" fill="#330000" d="M407.189,106.088c3.342-12.524,2.898-29.012,19.678-26.892
	c6.8,0.859,12.172,6.057,17.053,10.495c4.674,4.249,8.209,12.567,14.43,10.494c-7.039-9.733-34.082-39.055-48.536-17.708
	C406.491,87.386,405.76,96.898,407.189,106.088z"/>
<path fill-rule="evenodd" clip-rule="evenodd" fill="#993300" d="M371.773,190.04c-19.555-8.646-18.777-42.605-7.871-59.684
	c5.458-8.547,16.33-17.096,20.334-28.858c3.219-9.461,4.505-17.567,9.837-22.956c-1.454,0.36-0.935-1.253-1.967-1.313
	c-0.531,0.125-0.654,0.659-1.313,0.656c-7.344,10.962-12.15,25.93-21.644,40.009c-8.853,13.129-20.421,22.705-20.33,40.664
	C348.881,171.06,356.252,189.538,371.773,190.04z"/>
<path fill-rule="evenodd" clip-rule="evenodd" fill="#66CCFF" d="M556.075,98.217c3.2-0.542,4.862-5.395,9.182-5.902
	c7.671-0.902,16.919,7.355,20.988,12.46c10.384,13.03,17.124,36.895,17.052,56.406c2.93,1.445,5.916,2.83,9.183,3.935
	c0-3.716,0-7.433,0-11.15c6.341,7.434,4.597,22.95,7.215,34.107c5.024-3.284,9.021-7.595,13.773-11.15
	c-2.427-33.425-17.132-63.822-39.353-82.641C583.568,85.351,556.594,71.827,556.075,98.217z"/>
<path fill-rule="evenodd" clip-rule="evenodd" fill="#330000" d="M459.66,118.549c11.711,31.441-28.406,45.577-42.631,23.612
	c-12.004-18.534,2.493-44.199,26.891-38.041C450.693,105.83,457.795,113.54,459.66,118.549z M420.31,113.302
	c-19.575,23.268,22.236,52.63,36.071,26.89c4.566-8.493,2.888-20.334-3.277-28.857C444.291,104.351,427.665,106.565,420.31,113.302z
	"/>
<path fill-rule="evenodd" clip-rule="evenodd" fill="#FFFFFF" d="M453.104,111.335c6.165,8.522,7.844,20.364,3.277,28.857
	c-13.835,25.74-55.646-3.623-36.071-26.89C427.665,106.565,444.291,104.351,453.104,111.335z M439.33,126.419
	c-2.104,2.358-1.732,8.83,0.654,10.495c3.73,1.939,6.885-0.492,8.526-2.624C450.189,127.104,444.551,122.628,439.33,126.419z"/>
<path fill-rule="evenodd" clip-rule="evenodd" fill="#663300" d="M384.236,108.055c-4.097,17.502-28.363,43.918-9.184,60.996
	c1.508-5.8-1.606-10.458-1.967-15.085c-1.062-13.57,8.516-22.591,13.117-32.137C385.576,117.209,383.767,113.771,384.236,108.055z"
	/>
<path fill-rule="evenodd" clip-rule="evenodd" fill="#FFFFFF" d="M499.67,110.022c18.898,9.645,11.104,41.095-10.494,38.697
	c-13.212-1.466-20.772-21.234-10.495-32.137C488.549,119.606,494.477,113.78,499.67,110.022z M487.207,127.732
	c-4.175-1.538-8.429,1.549-8.526,5.902C478.328,149.418,500.134,132.489,487.207,127.732z"/>
<path fill-rule="evenodd" clip-rule="evenodd" d="M539.021,111.335c3.178,18.829,20.259,35.949,13.773,62.308
	C576.553,157.829,549.143,125.844,539.021,111.335z"/>
<path fill-rule="evenodd" clip-rule="evenodd" d="M378.989,115.926c-9.655,8.612-22.417,26.777-20.333,47.879
	c1.1,11.118,6.906,26.095,22.956,23.612c-1.28-4.624-3.322-8.484-5.246-12.462C355.493,162.215,369.112,130.743,378.989,115.926z"/>
<path fill-rule="evenodd" clip-rule="evenodd" d="M528.527,120.517c-0.861,0.231-1.031,1.154-1.968,1.312
	c7.569,13.398,21.555,42.625,6.559,58.372c-1.781,1.499-6.681-0.123-6.559,3.28c0.545,2.91,8.55,0.516,10.495-0.657
	c6.688-4.03,10.313-14.937,10.494-22.299C547.966,143.49,532.521,130.865,528.527,120.517z"/>
<path fill-rule="evenodd" clip-rule="evenodd" fill="#993300" d="M525.248,124.452c-2.535,0.963-3.144,3.851-4.59,5.903
	c8.088,9.877,19.671,35.827,5.901,47.879c2.405,2.61,7.448-2.098,8.526-3.935C544.096,158.936,529.012,135.583,525.248,124.452z"/>
<path fill-rule="evenodd" clip-rule="evenodd" d="M448.511,134.291c-1.642,2.131-4.796,4.562-8.526,2.624
	c-2.387-1.666-5.076-6.375-0.654-10.495C444.551,122.628,450.189,127.104,448.511,134.291z M441.953,127.732
	c0.192,1.337,1.772,1.285,1.967,2.623C447.048,129.625,443.961,125.237,441.953,127.732z M440.641,129.044
	c-1.81,2.065,0.045,6.047,1.967,6.559c2.386-0.238,3.699-1.549,3.937-3.936C444.008,133.561,440.969,131.424,440.641,129.044z"/>
<path fill-rule="evenodd" clip-rule="evenodd" d="M387.516,125.109c-5.991,7.876-12.687,18.229-11.149,31.48
	C380.86,147.093,391.871,141.355,387.516,125.109z"/>
<path fill-rule="evenodd" clip-rule="evenodd" d="M478.462,134.297c-1.229-4.178,4.57-8.103,8.745-6.565
	C500.134,132.489,482.732,148.815,478.462,134.297z M484.584,130.355c0.116,2.07,0.461,3.911,2.623,3.935
	C488.714,132.592,487.283,129.853,484.584,130.355z M482.617,131.667c-1.146,0.604-1.447,2.05-1.312,3.936
	c1.242,0.955,3.224,3.142,5.246,1.312C484.616,135.789,482.387,134.958,482.617,131.667z"/>
<path fill-rule="evenodd" clip-rule="evenodd" d="M440.641,129.044c-1.81,2.065,0.045,6.047,1.967,6.559
	c2.386-0.238,3.699-1.549,3.937-3.936C444.008,133.561,440.969,131.424,440.641,129.044z"/>
<path fill-rule="evenodd" clip-rule="evenodd" d="M482.617,131.667c-1.146,0.604-1.447,2.05-1.312,3.936
	c1.242,0.955,3.224,3.142,5.246,1.312C484.616,135.789,482.387,134.958,482.617,131.667z"/>
<path fill-rule="evenodd" clip-rule="evenodd" fill="#663300" d="M519.345,133.634c-5.058,5.285,0.71,7.914,3.937,13.118
	c2.575,4.154,5.447,12.169,5.246,17.708c-0.166,4.624-2.519,5.576-2.623,11.149c4.151,0.217,4.22-4.262,4.591-6.559
	C532.719,155.282,525.104,140.909,519.345,133.634z"/>
<path fill-rule="evenodd" clip-rule="evenodd" d="M516.722,142.816c-3.94,10.807,7.565,17.293,7.871,28.204
	C528.666,159.904,521.475,149.406,516.722,142.816z"/>
<path fill-rule="evenodd" clip-rule="evenodd" fill="#330000" d="M468.188,144.129c3.164,14.764,17.684,23.855,16.396,45.254
	c-9.629-1.086-17.146-9.96-20.333-19.675c-1.631,13.876,9.306,20.864,20.333,24.267
	C494.807,178.408,475.414,155.718,468.188,144.129z"/>
<path fill-rule="evenodd" clip-rule="evenodd" fill="#0099CC" d="M603.297,165.116c0,2.624,0,5.247,0,7.87
	c4.085,0.726,5.441,4.179,9.839,4.592c-1.343-2.155-0.354-6.642-0.656-9.838C609.377,166.908,606.746,165.602,603.297,165.116z"/>
<path fill-rule="evenodd" clip-rule="evenodd" fill="#663300" d="M611.168,250.38c2.854-4.014,3.652-10.185,4.592-15.742
	c3.301-19.509,1.746-45.979-0.657-66.899c-1.92-2.177,0.007,5.436,0,7.215C615.026,196.183,612.298,227.965,611.168,250.38z"/>
<path fill-rule="evenodd" clip-rule="evenodd" fill="#66CCFF" d="M603.297,176.923c-0.088,5.99,6.119,5.687,8.527,9.182
	c1.285-0.9,0.354-4.019,1.312-5.247C608.871,180.531,607.486,177.326,603.297,176.923z"/>
<path fill-rule="evenodd" clip-rule="evenodd" fill="#0099CC" d="M634.123,179.546c-5.71,3.035-8.895,8.594-14.429,11.806
	c0.028,2.159,1.107,3.265,0.656,5.903c4.804-3.285,8.558-7.621,13.772-10.495C634.123,184.355,634.123,181.951,634.123,179.546z"/>
<path fill-rule="evenodd" clip-rule="evenodd" fill="#330000" d="M418.996,190.04c3.32-1.271,5.261-3.921,8.527-5.247
	c-1.398,23.541,22.396,36.189,43.943,26.235c-1.932-3.099-5.887-0.144-7.869,0c-18.444,1.337-32.062-5.48-31.484-24.924
	c-0.216-2.839,3.633-1.614,3.28-4.591C429.304,179.034,419.506,182.721,418.996,190.04z"/>
<path fill-rule="evenodd" clip-rule="evenodd" fill="#0099CC" d="M601.986,186.104c2.086,3.816,5.919,5.886,10.493,7.215
	c0-1.75,0-3.499,0-5.247C608.215,188.615,603.562,180.07,601.986,186.104z"/>
<path fill-rule="evenodd" clip-rule="evenodd" fill="#66CCFF" d="M634.123,188.728c-5.012,3.296-8.426,8.189-13.772,11.15
	c-0.05,9.352,0.31,19.112-0.656,27.547c5.212-6.396,20.977-4.733,22.3,3.936c3.559-6.932-7.436-14.53-15.085-10.494
	c-0.291-0.584-0.576-1.174-1.312-1.313c0.504-8.24,11.316-6.172,15.085-11.15c-0.109-1.857-1.202-2.732-1.312-4.59
	c-2.754,1.128-6.658,4.045-10.495,1.967C629.266,200.519,636.41,197.347,634.123,188.728z"/>
<path fill-rule="evenodd" clip-rule="evenodd" fill="#330000" d="M480.648,208.403c-5.555-0.066-13.225-5.809-7.869-13.117
	c7.044,5.344,19.678,6.831,20.986-5.247C493.294,198.82,489.82,208.516,480.648,208.403z M474.746,196.598
	c-6.068,9.427,11.85,12,14.43,4.592C484.784,201.329,476.475,201.154,474.746,196.598z"/>
<path fill-rule="evenodd" clip-rule="evenodd" fill="#66CCFF" d="M599.362,193.975c0.388,3.328,4.083,3.35,5.247,5.903
	c-5.012-0.022-16.58,1.515-17.709,7.87c4.596-1.896,13.474-2.188,15.086,2.624c-7.508,1.894-12.197,6.605-15.086,13.119
	c3.045-4.381,12.196-8.193,19.021-4.592c-4.769,2.882-8.374,6.929-9.839,13.117c2.425,1.227,6.625-6.853,13.773-5.247
	c0.85-10.3,2.816-19.484,1.969-31.482C606.297,196,601.654,186.658,599.362,193.975z"/>
<path fill-rule="evenodd" clip-rule="evenodd" fill="#330000" d="M465.564,193.32c5.274,19.32-26.877,11.006-21.645-2.624
	C446.293,200.173,460.912,195.265,465.564,193.32z M449.167,199.222c3.163,6.807,16.625,4.335,15.74-2.624
	C460.461,195.868,455.412,201.545,449.167,199.222z"/>
<path fill-rule="evenodd" clip-rule="evenodd" fill="#993300" d="M449.167,199.222c3.163,6.807,16.625,4.335,15.74-2.624
	C460.461,195.868,455.412,201.545,449.167,199.222z"/>
<path fill-rule="evenodd" clip-rule="evenodd" fill="#993300" d="M474.746,196.598c-6.068,9.427,11.85,12,14.43,4.592
	C484.784,201.329,476.475,201.154,474.746,196.598z"/>
<path fill-rule="evenodd" clip-rule="evenodd" fill="#5D7B23" d="M390.14,199.878c-9.071,3.766-14.719,22.782-15.743,36.072
	c-2.586,33.562,15.876,65.158,34.764,76.737c6.242-18.793,13.504-38.611,26.233-50.502c3.099-2.896,8.559-4.566,9.837-8.525
	c-6.037-1.617-9.9,5.028-13.117,8.525c-10.354,11.266-21.011,24.618-25.577,41.976c-13.53-11.162-26.127-33.239-28.203-57.061
	C376.59,227.122,382.499,211.13,390.14,199.878z"/>
<path fill-rule="evenodd" clip-rule="evenodd" fill="#F2F521" d="M404.566,298.915c8.559-18.99,18.591-36.503,35.418-47.222
	c-1.826-2.548-4.911-3.833-7.215-5.903c-12.725,5.859-19.404,17.762-26.89,28.858c0.821-14.933,9.771-27.384,17.054-38.041
	c-7.223-5.69-13.262,8.393-18.367,13.117c-3.176-8.109,2.013-18.887,6.561-23.611c-5.521-8.689-13.225-15.198-19.021-23.612
	C369.302,228.239,384.409,281.487,404.566,298.915z"/>
<path fill-rule="evenodd" clip-rule="evenodd" fill="#FF9966" d="M436.707,215.619c0.111,12.006,34.143,23.881,36.072,5.248
	C463.375,233.454,444.403,223.463,436.707,215.619z"/>
<path fill-rule="evenodd" clip-rule="evenodd" fill="#5D7B23" d="M498.357,228.08c-0.764-0.106-1.168,0.146-1.312,0.657
	c4.559,32.165-4.751,61.068-22.3,75.424c-1.944-12.898-4.362-26.09-9.182-37.384c-1.276-2.989-2.741-8.347-7.215-7.87
	c-0.918,3.609,1.826,7.79,3.277,11.805c4.363,12.052,9.299,26.256,8.527,42.632C490.567,296.67,506.539,265.019,498.357,228.08z"/>
<path fill-rule="evenodd" clip-rule="evenodd" fill="#B7B71A" d="M406.536,242.51c3.362-3.851,6.952-7.477,11.804-9.838
	C412.867,222.337,407.388,234.992,406.536,242.51z"/>
<path fill-rule="evenodd" clip-rule="evenodd" fill="#F2F521" d="M495.734,230.704c-2.789,2.677-4.742,6.19-7.215,9.183
	c1.562,5.728,5.675,14.908,1.968,21.644c-3.676-3.903-4.675-13.492-10.495-13.118c-1.41,7.904,7.303,28.023-0.654,36.729
	c-1.356-11.542-3.787-22.012-9.184-29.514c-2.53,0.094-3.03,2.217-5.903,1.967c5.808,12.34,10.979,25.314,11.807,42.632
	C490.821,285.689,498.688,260.772,495.734,230.704z"/>
<path fill-rule="evenodd" clip-rule="evenodd" fill="#FFDBC0" d="M617.07,241.854c0.475,2.004-0.671,2.39-0.654,3.936
	c-0.121,2.515,0.536,0.239,1.967,0.656c0.113,1.643-1.469,1.592-1.967,2.624c2.531,1.402,6.716,1.153,7.869,3.935
	c-9.982-0.79-21.359,1.495-24.923,9.182c2.498,5.81,7.523,9.091,12.462,12.462c1.817-8.022,20.525-13.722,20.332-23.612
	C632.061,246.136,625.175,239.77,617.07,241.854z"/>
<path fill-rule="evenodd" clip-rule="evenodd" fill="#B7B71A" d="M487.207,242.51c-2.233-0.048-2.443,1.93-3.279,3.279
	c1.324,4.143,4.584,6.348,5.903,10.495C491.447,251.813,488.516,246.24,487.207,242.51z"/>
<path fill-rule="evenodd" clip-rule="evenodd" fill="#B7B71A" d="M477.369,251.692c-2.191,0.432-3.207,2.039-5.246,2.623
	c2.435,6.311,6.63,10.859,7.215,19.021C481.007,266.413,479.17,257.33,477.369,251.692z"/>
<path fill-rule="evenodd" clip-rule="evenodd" fill="#FFDBC0" d="M594.771,253.66c1.365,4.484-0.399,6.351,0.657,9.837
	c2.469,8.157,16.762,12.116,17.052,19.02c0.216,5.124-7.283,12.155-11.806,11.807c-9.051-0.698-11.298-15.715-11.15-27.547
	c-2.143,0.139-2.649-4.732-4.592-2.624c2.758,9.486,2.045,22.442,7.872,28.859c-6.752,1.066-6.913-4.456-11.149-5.903
	c-3.138,2.983-4.256,7.987-9.183,9.182c-3.728-5.93,4.204-9.256,6.559-14.429c3.692-8.109,1.458-15.752-1.968-21.644
	C578.406,253.655,586.864,251.573,594.771,253.66z M603.297,291.044c3.559-3.103,7.434-4.35,7.215-8.527
	C609.82,269.267,587.09,288.127,603.297,291.044z"/>
<path fill-rule="evenodd" clip-rule="evenodd" fill="#990033" d="M408.503,317.278c-2.105-3.277-12.845-11.037-17.054-16.396
	c-6.055-7.711-8.897-14.132-12.46-20.988c-10.282,15.078-14.396,36.327-20.333,55.75c8.777,12.842,23.661,26.25,48.533,24.268
	c12.387-0.988,29.002-7.021,30.828-14.431c0.768-3.111-1.108-6.515-1.311-9.837c-1.389-22.412,7.271-48.29,18.363-60.34
	c4.66,4.303,6.338,11.589,9.837,17.052c-0.528-6.037-2.431-13.351-5.247-20.988c-1.942-5.268-5.425-15.692-11.149-15.741
	c-2.954-0.025-9.821,6.347-13.117,9.839C423.982,277.551,415.874,305.011,408.503,317.278z"/>
<path fill-rule="evenodd" clip-rule="evenodd" fill="#990033" d="M371.773,255.627c-0.559-0.12-0.617,0.256-0.654,0.657
	c-19.196,42.456-51.809,71.497-99.038,85.92c1.919,8.578,9.677,5.319,15.084,3.277c39.532-14.924,65.078-43.044,89.201-72.146
	C374.477,267.792,372.934,261.9,371.773,255.627z"/>
<path fill-rule="evenodd" clip-rule="evenodd" fill="#FFDBC0" d="M628.876,262.186c5.731,5.2,13.894,7.969,14.431,18.365
	c-10.807,0.248-11.452,15.729-17.709,20.332c-6.188,4.552-10.664-3.642-11.15-8.527c-1.118-11.254,11.082-16.678,18.365-20.988
	c-4.517-0.038-4.943,1.476-5.248-1.967c-2.483,2.544-3.608,6.448-7.87,7.215C619.992,269.042,623.767,264.946,628.876,262.186z
	 M622.317,283.829c-8.778-1.849-7.392,15.039-1.312,15.742C628.924,300.486,630.09,285.468,622.317,283.829z"/>
<path fill-rule="evenodd" clip-rule="evenodd" fill="#663300" d="M617.07,273.336c-2.193,1.381-4.307,4.168-1.968,6.559
	C617.218,279.166,617.178,276.285,617.07,273.336z"/>
<path fill-rule="evenodd" clip-rule="evenodd" fill="#FF9966" d="M610.512,282.518c0.219,4.177-3.656,5.424-7.215,8.527
	C587.09,288.127,609.82,269.267,610.512,282.518z M599.362,287.109c0.874,0.656,1.98,1.081,2.624,1.968
	c3.078-1.294,4.241-4.505,6.558-6.56C606.467,276.479,599.145,281.458,599.362,287.109z"/>
<path fill-rule="evenodd" clip-rule="evenodd" fill="#FFFFFF" d="M599.362,287.109c0.874,0.656,1.98,1.081,2.624,1.968
	c3.078-1.294,4.241-4.505,6.558-6.56C606.467,276.479,599.145,281.458,599.362,287.109z"/>
<path fill-rule="evenodd" clip-rule="evenodd" fill="#FF9966" d="M621.006,299.571c-6.08-0.704-7.467-17.591,1.312-15.742
	C630.09,285.468,628.924,300.486,621.006,299.571z M621.006,296.948c3.865,0.803,3.318-2.804,5.247-3.935
	C623.404,279.889,613.135,289.768,621.006,296.948z"/>
<path fill-rule="evenodd" clip-rule="evenodd" fill="#FFFFFF" d="M621.006,296.948c3.865,0.803,3.318-2.804,5.247-3.935
	C623.404,279.889,613.135,289.768,621.006,296.948z"/>
<path fill-rule="evenodd" clip-rule="evenodd" fill="#FFDBC0" d="M638.06,287.109c-5.759,3.292-8.071,13.398,0,15.742
	c0.501-1.904,1.036-3.774,2.623-4.592c-4.891,13.006,5.868,39.291,17.708,23.612c-5.195-6.658-8.004-12.837-8.525-22.3
	C649.586,294.502,639.801,291.55,638.06,287.109z"/>
<path fill-rule="evenodd" clip-rule="evenodd" fill="#5D7B23" d="M561.977,287.109c-1.115-0.242-1.236,0.511-1.312,1.312
	c5.37,10.371,13.154,18.328,23.612,23.61c-1.154-6.059-4.544-9.885-7.215-14.428c-2.45-0.701-1.87,1.629-3.936,1.312
	c-3.063-1.308-5.141-3.603-4.592-8.527C565.984,289.662,563.791,288.574,561.977,287.109z"/>
<path fill-rule="evenodd" clip-rule="evenodd" fill="#B7B71A" d="M558.042,287.765c-3.013,1.489-5.379,3.246-5.247,5.903
	c0.303,6.077,13.441,4.75,9.838,16.396c2.689,1.027,7.129,0.305,9.183,1.967c2.139,2.018,1.353,6.955,3.935,8.527
	c4.906,0.971,6.128-1.743,7.215-4.591C573.294,307.931,561.626,301.89,558.042,287.765z"/>
<path fill-rule="evenodd" clip-rule="evenodd" fill="#FFFFFF" d="M611.824,292.356c-1.827,6.491-5.845,19.443,3.278,20.989
	c-3.788,5.612-7.013,11.788-9.837,18.363c0.302-7.955-0.859-14.445-2.623-20.333c1.567-0.397,4.758,0.824,5.246-0.654
	C608.445,304.221,605.777,291.202,611.824,292.356z M610.512,314.001c-1.803,0.553-2.574,4.311-1.968,5.247
	C610.096,318.794,612.509,315.826,610.512,314.001z M607.232,314.001c-2.492-0.528-0.834,3.102-1.312,4.591
	C607.797,318.501,607.12,315.855,607.232,314.001z"/>
<path fill-rule="evenodd" clip-rule="evenodd" fill="#F2F521" d="M550.172,294.324c-0.861,0.231-1.031,1.154-1.967,1.312
	c0.488,14.613,14.947,20.896,21.644,31.482c3.038-0.896,5.329-2.541,7.87-3.937c-4.303-1.602-5.625-6.181-7.215-10.494
	c-8.601,1.386-11.531-2.897-10.494-11.149C555.143,300.721,551.176,299.004,550.172,294.324z"/>
<path fill-rule="evenodd" clip-rule="evenodd" fill="#990033" d="M484.584,304.161c-2.352,2.023-4.479,4.267-5.903,7.214
	c7.09,9.09,12.451,23.917,20.989,31.483c10.45,9.264,26.844-2.261,36.072-8.526c7.65-5.193,16.4-9.957,20.333-17.054
	c-1.748-0.656-2.163-2.647-3.28-3.934c-10.617,7.744-19.885,16.845-34.76,20.33c-1.027,2.036-1.947,4.177-3.281,5.903
	c-2.06,0.312-2.679-0.816-3.279-1.967c-2.109,1.169-2.243,4.315-5.246,4.593c-3.699-1.339-1.578-8.511,0-10.496
	C497.034,324.505,488.738,316.403,484.584,304.161z"/>
<path fill-rule="evenodd" clip-rule="evenodd" fill="#A17E60" d="M610.512,314.001c-1.803,0.553-2.574,4.311-1.968,5.247
	C610.096,318.794,612.509,315.826,610.512,314.001z"/>
<path fill-rule="evenodd" clip-rule="evenodd" fill="#A17E60" d="M607.232,314.001c-2.492-0.528-0.834,3.102-1.312,4.591
	C607.797,318.501,607.12,315.855,607.232,314.001z"/>
<path fill-rule="evenodd" clip-rule="evenodd" fill="#5D7B23" d="M287.165,361.879c0.222-4.814-2.645-6.536-3.279-10.494
	c-7.673,0.017-14.767-1.563-15.084-10.493c0.69-2.903,2.968-0.806,4.59-1.97c-1.74-3.066-5.126-4.491-7.87-6.557
	c-2.233-0.486-1.081,2.415-2.623,2.623c1.34,6.229,4.553,10.435,9.183,15.74C277.109,356.493,278.77,361.312,287.165,361.879z"/>
<path fill-rule="evenodd" clip-rule="evenodd" fill="#F2F521" d="M260.274,336.955c-4.518,0.659-4.206,5.463-2.623,9.184
	c1.692,1.588,5.084,1.473,6.56,3.276c-1.235,3.561-0.533,7.563,1.311,9.84c2.226,0.179,5.319-0.507,6.56,0.657
	c2.159,1.993,1.269,7.037,3.28,9.183c5.004,0.849,5.789-2.52,9.181-3.282C273.68,358.97,265.138,349.8,260.274,336.955z"/>
<path fill-rule="evenodd" clip-rule="evenodd" fill="#5D7B23" d="M358,340.235c-0.713,0.162-0.443,1.302-1.311,1.312
	c6.992,21.537,43.655,32.794,67.555,22.3c5.625-2.471,13.871-5.481,14.43-12.463c-2.912-1.521-4.617,2.021-6.561,3.28
	c-7.75,5.025-21.854,9.834-36.073,8.526C380.948,361.801,364.13,349.894,358,340.235z"/>
<path fill-rule="evenodd" clip-rule="evenodd" fill="#B7B71A" d="M254.371,343.515c-0.76-0.106-1.166,0.145-1.31,0.654
	c0.319,9.202,4.2,16.863,10.493,22.3c3.861,3.339,10.782,9.053,14.43,5.247c-5.06-0.625-6.514-4.854-7.216-9.837
	c-8.636,1.2-11.078-5.025-9.837-11.807C256.368,350.264,254.935,347.323,254.371,343.515z"/>
<path fill-rule="evenodd" clip-rule="evenodd" fill="#5D7B23" d="M335.699,394.672c-13.227-18.545-2.426-45.921,22.301-43.943
	c-0.721-2.338-2.789-3.331-3.277-5.903c-22.669-3.099-40.955,3.099-38.044,24.27C318.288,380.784,327.356,388.272,335.699,394.672z"
	/>
<path fill-rule="evenodd" clip-rule="evenodd" fill="#B7B71A" d="M363.246,409.756c-8.842-12.506-12.158-43.164,3.937-49.844
	c-6.13-13.55-31.44-3.724-34.106,9.183c-2.735,13.253,4.967,24.585,11.807,32.794C350.948,404.565,356.02,408.24,363.246,409.756z"
	/>
<path fill-rule="evenodd" clip-rule="evenodd" fill="#B7B71A" d="M440.641,355.976c22.164,11.348,3.992,44.755-9.838,53.127
	c11.845-4.19,32.623-18.945,32.138-38.041C462.692,361.268,453.726,352.17,440.641,355.976z"/>
<path fill-rule="evenodd" clip-rule="evenodd" fill="#FFDBC0" d="M228.138,379.589c-2.236,8.257-10.2,10.787-19.021,12.46
	c-0.482,17.046-9.184,22.562-20.989,29.514c-6.005,3.539-19.322,14.561-4.591,17.71c22.095,4.722,33.971-20.792,38.697-36.729
	c2.524-3.376,7.185-4.62,10.493-7.214c0.902-3.688,0.651-8.532,3.937-9.837c2.703,2.567-0.984,6.933-0.656,11.149
	c4.817,4.802,11.246,7.99,15.74,13.114c1.657-5.994,3.944-11.357,7.87-15.084c-1.991-4.571-6.894-9.711-4.59-16.396
	c-2.042-3.208-5.851-4.644-6.56-9.181c3.541-4.767,8.731-7.296,3.279-13.119c-5.9,11.476-26.509,10.963-38.04,15.086
	c-3.032,1.084-5.432,6.31-7.214,9.184c4.44,1.147,8.134-4.102,14.427-3.282c-4.414,5.642-13.979,6.135-20.987,9.183
	c-2.372,8.559-5.422,16.439-5.246,27.547c7.929-4.094,10.691-13.356,11.807-24.267C215.778,388.217,222.88,384.824,228.138,379.589z
	"/>
<path fill-rule="evenodd" clip-rule="evenodd" fill="#5D7B23" d="M432.77,362.535c13.939,15.82-5.27,43.8-18.363,51.814
	c13.966-0.228,38.719-26.071,34.761-45.911C447.947,362.324,438.463,355.183,432.77,362.535z"/>
<path fill-rule="evenodd" clip-rule="evenodd" fill="#5D7B23" d="M373.086,413.036c-4.235-14.939-4.166-38.978,4.59-48.534
	c-3.213-0.721-5.403-2.469-8.526-3.28c-16.72,6.79-10.664,40.27-1.311,50.504C369.676,412.075,371.247,412.689,373.086,413.036z"/>
<path fill-rule="evenodd" clip-rule="evenodd" fill="#B7B71A" d="M412.438,369.749c6.324,17.792-3.699,37.141-9.838,46.567
	c18.634-4.361,33.333-22.156,32.794-46.567C431.107,358.42,422.703,370.387,412.438,369.749z"/>
<path fill-rule="evenodd" clip-rule="evenodd" fill="#B7B71A" d="M377.02,414.35c20.35,8.382,20.747-25.9,19.021-44.601
	c-5.903-0.436-10.568-2.108-15.084-3.937C370.577,374.662,371.883,400.645,377.02,414.35z"/>
<path fill-rule="evenodd" clip-rule="evenodd" fill="#5D7B23" d="M398.664,370.405c1.942,15.497-0.198,35.916-7.871,45.911
	c13.576,0.974,21.727-21.516,21.645-34.761c-0.02-3.302-0.935-6.427-1.968-9.184c0.185-1.057-0.619-1.129-0.656-1.967
	C406.099,370.405,402.381,370.405,398.664,370.405z"/>
<path fill-rule="evenodd" clip-rule="evenodd" fill="#996633" d="M189.44,380.898c0.884-2.396,0.841-5.716,3.28-6.557
	c4.83,1.07,8.054,3.752,10.493,7.214c-10.453,4.192-10.059,19.239-10.493,33.45c-9.515,3.362-29.173,19.092-12.463,26.233
	c22.836,9.763,41.601-20.49,45.256-38.04c2.558-0.939,4.687-2.309,6.558-3.937c14.283,8.02,24.849,19.754,37.387,29.517
	c-1.991-0.896-4.449-0.099-6.56,0.653c-1.335,2.821-2.754,5.554-2.624,9.84c-20.322,16.187-32.548,40.472-46.566,62.964
	c-24.793-23.96-49.586-47.923-78.048-68.211C148.667,411.395,164.645,391.739,189.44,380.898z M236.008,415.006
	c-3.291,0.208-1.633,5.361-3.937,6.557c-2.41,0.214-5.805-0.558-7.214,0.657c0.508,3.866,3.79,4.955,5.903,7.213
	c-1.414,1.209-3.229,2.018-4.59,3.28c9.751-3.031,11.3,7.222,22.298,6.56c3.354-2.607,1.171-7.123-1.311-9.183
	c-1.7,1.046,1.459,4.95-0.657,6.56c-4.454-0.796-7.231-3.262-9.837-5.903c1.14-1.703,4.479-1.206,3.934-4.591
	c-1.942,0.897-4.16,1.521-5.903,2.624c-2.329-0.947-3.901-2.658-5.246-4.593c3.861,0.146,6.338-1.095,6.56-4.591
	c0.961,0.571,2.079,0.982,1.967,2.624C239.912,419.81,236.478,417.184,236.008,415.006z M226.824,438.616
	c-0.667,3.074,1.081,3.73,1.97,5.247c-7.726,2.529-12.34-11.609-20.333-4.591c1.147,9.347,17.611,3.376,18.363,13.117
	c-3.977,1.121-6.677-4.684-11.804-4.59c-0.157,4.31,4.748,3.56,4.591,7.87c-4.574,3.253-10.865-8.474-17.054-1.97
	c-1.137,1.953,0.214,3.33-0.656,4.593c-3.435-0.062-5.903-1.092-9.837-0.656c1.585,3.445,6.543,3.515,11.806,3.279
	c2.907,3.179,12.818,4.404,13.117-1.967c1.743-0.008,3.747,0.246,4.591-0.656c0.755-0.776,0.741-2.319,0.656-3.937
	c2.986,0.405,4.873,2.261,7.214,0c0.51-4.006-1.266-5.729-2.624-7.87c4.537-2.239,7.742,1.183,12.464,0
	C242.162,439.719,231.682,433.586,226.824,438.616z M204.524,445.176c0.881,2.016,4.2,4.169,6.56,2.624
	C211.794,444.194,206.63,443.882,204.524,445.176z"/>
<path fill-rule="evenodd" clip-rule="evenodd" fill="#990033" d="M434.737,411.726c7.787,21.945,22.614,36.851,34.762,54.438
	c-22.561,7.39-17.349,42.556-28.202,61.651c2.07-0.32,2.316,1.182,4.59,0.656c7.767-15.012,8.028-31.203,18.364-42.631
	c4.388-4.849,14.917-8.457,15.741-16.396c0.889-8.543-14.184-23.798-18.365-30.171c-6.815-10.395-13.584-21.716-15.74-33.45
	C442.815,405.942,438.355,410.002,434.737,411.726z"/>
<path fill-rule="evenodd" clip-rule="evenodd" fill="#990033" d="M339.636,527.16c-10.67-16.994,2.583-53.869-20.333-58.374
	c3.117-5.153,7.852-8.63,11.807-13.116c11.246-12.754,21.619-27.227,30.826-42.634c-4.408-0.838-8.078-2.415-11.149-4.591
	c-6.448,13.208-21.722,33.31-34.107,47.225c-3.592,4.035-11.616,11.44-11.147,15.084c0.374,2.922,6.229,4.862,7.871,6.56
	c7.827,8.094,12.863,27.944,17.707,40.664C332.48,521.58,333.169,529.207,339.636,527.16z"/>
<path fill-rule="evenodd" clip-rule="evenodd" fill="#330000" d="M236.008,415.006c-3.291,0.208-1.633,5.361-3.937,6.557
	c-2.41,0.214-5.805-0.558-7.214,0.657c0.508,3.866,3.79,4.955,5.903,7.213c-1.414,1.209-3.229,2.018-4.59,3.28
	c9.751-3.031,11.3,7.222,22.298,6.56c3.354-2.607,1.171-7.123-1.311-9.183c-1.7,1.046,1.459,4.95-0.657,6.56
	c-4.454-0.796-7.231-3.262-9.837-5.903c1.14-1.703,4.479-1.206,3.934-4.591c-1.942,0.897-4.16,1.521-5.903,2.624
	c-2.329-0.947-3.901-2.658-5.246-4.593c3.861,0.146,6.338-1.095,6.56-4.591c0.961,0.571,2.079,0.982,1.967,2.624
	C239.912,419.81,236.478,417.184,236.008,415.006z"/>
<path fill-rule="evenodd" clip-rule="evenodd" fill="#330000" d="M239.288,446.486c-4.722,1.183-7.927-2.239-12.464,0
	c1.358,2.141,3.134,3.864,2.624,7.87c-2.341,2.261-4.228,0.405-7.214,0c0.085,1.617,0.099,3.16-0.656,3.937
	c-0.844,0.902-2.848,0.648-4.591,0.656c-0.299,6.371-10.21,5.146-13.117,1.967c-5.263,0.235-10.221,0.166-11.806-3.279
	c3.934-0.436,6.402,0.595,9.837,0.656c0.87-1.263-0.48-2.64,0.656-4.593c6.188-6.504,12.479,5.223,17.054,1.97
	c0.157-4.311-4.748-3.561-4.591-7.87c5.127-0.094,7.827,5.711,11.804,4.59c-0.752-9.741-17.216-3.771-18.363-13.117
	c7.993-7.019,12.607,7.12,20.333,4.591c-0.889-1.517-2.637-2.173-1.97-5.247C231.682,433.586,242.162,439.719,239.288,446.486z
	 M211.084,439.272c0.924,3.667,6.002,3.179,8.527,5.247C220.192,441.952,214.914,439.609,211.084,439.272z M234.694,439.93
	c-1.779-0.47,0.47,3.09-1.31,2.623c0.071,1.673,2.196,1.3,3.934,1.311C236.889,442.107,235.439,441.37,234.694,439.93z
	 M231.418,439.93c-0.657,0-1.313,0-1.97,0c0.231,0.859,1.155,1.029,1.312,1.967C231.529,441.789,231.313,440.7,231.418,439.93z
	 M206.494,455.013c-0.438,0-0.876,0-1.313,0c0,0.438,0,0.876,0,1.313c0.438,0,0.876,0,1.313,0
	C206.494,455.889,206.494,455.451,206.494,455.013z M210.428,456.326c-2.141-0.174-1.391,2.543-3.277,2.623
	c0.491,2.036,4.745,2.645,6.558,1.311C214.447,457.116,211.207,457.951,210.428,456.326z"/>
<path fill-rule="evenodd" clip-rule="evenodd" fill="#996633" d="M211.084,439.272c0.924,3.667,6.002,3.179,8.527,5.247
	C220.192,441.952,214.914,439.609,211.084,439.272z"/>
<path fill-rule="evenodd" clip-rule="evenodd" fill="#996633" d="M234.694,439.93c-1.779-0.47,0.47,3.09-1.31,2.623
	c0.071,1.673,2.196,1.3,3.934,1.311C236.889,442.107,235.439,441.37,234.694,439.93z"/>
<path fill-rule="evenodd" clip-rule="evenodd" fill="#996633" d="M231.418,439.93c-0.657,0-1.313,0-1.97,0
	c0.231,0.859,1.155,1.029,1.312,1.967C231.529,441.789,231.313,440.7,231.418,439.93z"/>
<path fill-rule="evenodd" clip-rule="evenodd" fill="#330000" d="M204.524,445.176c0.881,2.016,4.2,4.169,6.56,2.624
	C211.794,444.194,206.63,443.882,204.524,445.176z"/>
<path fill-rule="evenodd" clip-rule="evenodd" fill="#996633" d="M206.494,455.013c-0.438,0-0.876,0-1.313,0
	c0,0.438,0,0.876,0,1.313c0.438,0,0.876,0,1.313,0C206.494,455.889,206.494,455.451,206.494,455.013z"/>
<path fill-rule="evenodd" clip-rule="evenodd" fill="#996633" d="M210.428,456.326c-2.141-0.174-1.391,2.543-3.277,2.623
	c0.491,2.036,4.745,2.645,6.558,1.311C214.447,457.116,211.207,457.951,210.428,456.326z"/>
<path fill-rule="evenodd" clip-rule="evenodd" fill="#A17E60" d="M172.387,476c2.806,3.801,7.351,9.352,11.807,13.773
	c4.868,4.831,9.661,9.367,14.431,14.43c4.561,4.847,8.97,10.606,14.427,13.117C201.53,501.517,187.629,488.087,172.387,476z"/>
<path fill-rule="evenodd" clip-rule="evenodd" fill="#DB0044" d="M340.949,518.634c-0.152,2.991,1.102,4.579,1.967,6.557
	c2.607,0.206,3.293-1.513,5.903-1.31c-0.716,5.1-14.876,8.996-22.301,5.246c1.212-0.974,3.117-1.257,5.247-1.312
	c-0.571-2.709-2.055-4.505-2.623-7.214c-2.349,0.713-5.327,0.795-7.214,1.967c0.593,7.852-1.74,10.972-3.937,17.054
	c5.81-0.531,10.875-1.805,12.46-6.561c10.182,4.161,17.716,16.781,32.141,12.464c-4.46-7.129-9.864-13.312-8.527-26.237
	C350.481,518.281,345.462,518.708,340.949,518.634z"/>
<path fill-rule="evenodd" clip-rule="evenodd" fill="#DB0044" d="M425.557,521.914c-1.014,8.169-3.544,14.819-5.903,21.644
	c9.877,3.567,25.593,1.759,30.824-6.561c5.896,1.757,6.856,8.449,13.12,9.837c0.395-2.396-3.748-7.408-3.28-13.773
	c0.224-3.074,2.122-4.779,1.967-7.87c-2.612-1.54-5.599-2.706-9.837-2.623c-0.782,1.844-1.477,3.771-1.97,5.903
	c2.071,0.32,2.316-1.183,4.593-0.656c-4.523,8.893-21.83,1.889-25.58-3.934c3.102,0.832,6.082,1.79,9.184,2.623
	C445.834,517.097,430.112,518.631,425.557,521.914z"/>
<path fill-rule="evenodd" clip-rule="evenodd" fill="#DB0044" d="M274.705,564.544c7.145-3.818,18.22-9.103,28.857-5.246
	c15.001-2.053,20.944-13.163,28.859-22.301c6.838,5.186,12.848,11.201,23.61,12.461c3.104,6.298,8.241,10.561,9.837,18.366
	c-4.435,4.203-13.309,7.083-20.986,5.903c-25.407,18.07-81.419,23.085-117.401,11.147
	C237.195,573.058,252.946,557.881,274.705,564.544z M315.369,556.674c-0.734,1.018-2.133,1.367-1.967,3.28
	c-4.623-0.032-9.439-0.256-9.84,3.934c-4.14-0.36-7.724-4.342-12.461-1.967c10.568,2.349,17.745,11.523,26.891,13.117
	c-1.722-5.492-8.313-6.114-11.15-10.494c6.176-6.002,11.679,4.046,17.054,2.624c-0.317-4.054-3.99-4.756-6.56-6.561
	c4.328-1.688,8.561,2.362,13.116,2.624C328.305,558.166,322.278,556.979,315.369,556.674z"/>
<path fill-rule="evenodd" clip-rule="evenodd" fill="#DB0044" d="M451.791,540.277c2.346,2.76,4.643,5.383,7.869,7.87
	c5.707,4.396,15.652,13.915,20.988,14.43c3.403,0.329,8.476-2.786,13.774-3.279c10.602-0.987,17.062,1.057,24.267,3.279
	c3.386-2.527,8.322-3.413,13.773-2.623c9.8,1.417,24.892,12.193,32.139,17.707c2.826,2.151,7.644,6.111,6.559,7.87
	c-31.928,8.658-66.514,1.86-96.414-4.59c-5.393-1.164-10.549-3.616-15.086-3.937c-15.828-1.11-31.891,1.452-40.664-10.493
	c2.352-6.553,7.038-10.662,7.215-17.708C438.308,549.532,446.037,545.893,451.791,540.277z M485.896,567.824
	c-4.823-5.597-15.323-0.291-19.676,2.623c5.114,1.826,9.25-2.986,15.74-1.969c1.006,2.34-4.924,3.37-5.247,6.56
	c7.847-1.369,14.181-9.843,23.61-11.807C495.969,560.237,489.328,565.596,485.896,567.824z"/>
<path fill-rule="evenodd" clip-rule="evenodd" fill="#990033" d="M315.369,556.674c-0.734,1.018-2.133,1.367-1.967,3.28
	c-4.623-0.032-9.439-0.256-9.84,3.934c-4.14-0.36-7.724-4.342-12.461-1.967c10.568,2.349,17.745,11.523,26.891,13.117
	c-1.722-5.492-8.313-6.114-11.15-10.494c6.176-6.002,11.679,4.046,17.054,2.624c-0.317-4.054-3.99-4.756-6.56-6.561
	c4.328-1.688,8.561,2.362,13.116,2.624C328.305,558.166,322.278,556.979,315.369,556.674z"/>
<path fill-rule="evenodd" clip-rule="evenodd" fill="#990033" d="M485.896,567.824c-4.823-5.597-15.323-0.291-19.676,2.623
	c5.114,1.826,9.25-2.986,15.74-1.969c1.006,2.34-4.924,3.37-5.247,6.56c7.847-1.369,14.181-9.843,23.61-11.807
	C495.969,560.237,489.328,565.596,485.896,567.824z"/>
<path fill-rule="evenodd" clip-rule="evenodd" fill="#4C0202" d="M219.611,526.504c-9.937,2.498-17.185-11.938-23.611-18.363
	c-18.283-18.281-43.178-39.704-60.997-51.814c-0.059-6.373,0.825-18.529-3.937-22.301c14.024-23.143,30.026-44.307,55.751-55.75
	c-0.24-5.049,3.438-6.181,6.56-7.87c4.577,1.762,7.317,5.361,11.147,7.87c3.111-12.18,16.482-10.883,28.86-15.084
	c7.763-2.637,11.724-5.449,17.053-9.84c-0.259-3.686-1.585-7.353-0.656-11.147c1.363-5.583,11.38-12.973,14.43-13.119
	c6.12-0.294,7.913,6.894,13.773,8.526c44.467-15.436,72.81-46.997,93.789-85.919c-1.951-22.948,2.009-45.644,16.396-54.438
	c-2.199-2.174-3.184-5.559-5.247-7.872c-12.455,9.624-29.209,0.354-39.351-3.935c-15.503-6.553-28.734-13.269-32.794-25.579
	c-6.061-18.377,6.565-35.661,15.084-45.911c7.691-9.254,17.414-14.97,25.58-24.267c18.15-20.669,19.439-48.553,41.975-57.717
	c3.229-1.313,9.015-1.612,9.839-1.968c4.212-1.821,6.963-5.512,9.838-7.215c10.005-5.925,27.883-8.66,45.256-7.213
	c14.432,1.201,21.962,8.206,33.449,13.117c6.674,2.853,15.049,5.107,20.987,10.494c6.887,6.245,12.859,16,17.054,25.58
	c4.195,9.585,6.231,21.334,11.15,32.137c10.346,22.73,26.254,33.145,28.201,58.374c1.453,18.823-8.369,25.384-22.955,28.857
	c-4.721,4.134-12.375,8.463-20.988,6.56c-5.33,14.784-16.728,23.499-25.578,34.761c7.595,20.341,3.745,41.451-2.624,57.061
	c-2.673,6.552-10.27,14.546-10.495,19.677c-0.405,9.264,16.333,23.199,22.957,27.547c-0.072,3.011-3.059,6.533-1.969,8.526
	c1.809-0.816,1.898-3.349,3.28-4.593c2.245-0.274,1.972,1.965,3.278,2.626c0.307-2.318,1.658-3.592,2.624-5.246
	c13.734-4.633,24.886-11.844,33.45-21.646c-2.57-3.771-4.745-7.936-4.592-14.43c4.209-3.132,8.144-11.579,14.43-11.805
	c4.005-0.146,6.254,3.515,10.494,5.247c3.611-4.323,8.632-8.349,7.87-17.053c-0.474-5.417-5.036-8.464-3.936-13.773
	c1.823-8.786,19.852-12.346,24.924-2.624c2.771-2.475,6.931-3.563,9.839-5.902c-0.646-6.992,2.031-14.138,0-20.332
	c-8.764-0.627-10.323,9.29-15.086,10.494c-4.334-6.839,3.424-15.582,4.59-19.021c-10.465,0.902-13.119,9.617-17.707,16.397
	c0.346-12.992,8.459-21.709,13.772-27.547c-4.717-0.835-7.337,3.365-11.148,1.312c-0.688-7.087,6.928-11.393,13.773-13.117
	c-3.423-5.224,2.229-8.754,3.278-15.085c0.709-4.279,0.223-10.173,0-15.085c-1.1-24.22-7.607-50.732-18.365-62.964
	c-7.001-7.962-27.533-15.531-22.955,3.279c-13.034-9.913-4.326-29.688,11.807-28.202c19.742,1.819,34.752,21.768,45.91,38.041
	c15.855,23.125,20.268,47.964,20.989,78.706c-2.046,1.687-6.063,4.848-5.247,7.214c3.195-0.738,3.789-4.081,8.525-3.279
	c1.351,3.022,2.988,5.758,2.623,10.494c-3.098,3.022-8.541,3.702-11.805,6.559c7.929-0.2,17.348,9.605,10.493,15.742
	c-5.421-8.975-24.907-10.364-24.923,5.902c14.856-2.567,21.891,14.102,12.463,22.3c8.319,3.703,15.097,8.951,15.74,20.332
	c-1.045,2.454-4.454,2.542-5.903,4.591c3.907,4.182,9.081,7.096,12.462,11.806c-4.369,14.754,10.457,15.123,8.526,25.579
	c-0.854,4.625-8.489,7.565-13.118,6.56c-7.828-1.702-11.872-15.948-10.494-24.267c-2.863-1.291-5.674-2.634-7.213-5.249
	c-4.35,7.263-16.334,4.739-17.71-3.278c-1.745,4.551-1.434,10.471,1.313,13.773c2.253,0.286,3.674-0.259,5.246-0.656
	c-2.197,9.194-13.646,16.056-9.184,27.547c4.049,0.203-0.3-5.449,2.624-5.246c5.929,7.299-7.831,11.331-7.87,2.623
	c-1.43,4.035-2.98,7.953-9.182,7.216c-2.195-1.654-1.588-7.456,1.311-7.872c-0.338,2.626-2.363,5.86,0.657,6.56
	c9.081-5.86,3.526-22.071,1.967-32.139c1.489-1.265,5.501-0.005,5.903-0.655c-0.219-3.733,0.309-10.164,0-11.807
	c-8.402,0.769-19.647-1.121-24.924-3.935c-2.27,7.398,7.218,12.839,6.559,21.645c-0.623,8.324-9.061,14.739-19.02,15.74
	c-2.461-4.537-6.55-7.443-10.494-10.493c-13.518,14.465-26.91,29.058-53.782,30.167c-12.919-8.505-19.55-23.298-28.202-36.07
	c-2.272,1.006-3.254,3.307-6.559,3.277c0.801-17.852-6.934-27.171-13.773-37.383c-10.793,17.491-18.025,47.272-13.117,74.112
	c32.364-2.3,23.266,30.205,13.117,42.634c-2.723,3.331-6.675,4.964-7.217,7.87c-1.662,8.954,10.651,23.854,15.087,30.824
	c3.062,4.817,5.974,9.365,9.183,13.773c3.134,4.308,7.982,9.479,9.838,13.773c5.814,13.47-8.791,18.994-14.43,24.924
	c-8.183,8.609-10.006,19.674-14.428,32.794c4.646,1.038,10.641,0.729,11.804,5.246c-2.511,6.182-2.087,16.712,3.28,21.644
	c0.696,2.447-2.459,1.039-1.967,3.28c5.338,2.532,8.639,7.102,14.428,9.184c7.369-2.349,14.333-4.257,22.299-3.937
	c5.443,0.222,10.388,2.811,15.088,2.623c2.227-0.088,4.225-1.682,6.558-1.967c14.667-1.793,25.918,7.753,34.761,13.773
	c7.314,4.98,15.991,10.099,17.053,17.054c-23.525,10.536-62.306,5.514-86.575,0.656c-10.646-2.132-21.052-6.597-30.171-7.216
	c-18.256-1.236-34.898,1.39-44.6-11.807c0.473-8.492,6.824-11.103,7.216-19.675c-13.056-4.561,0.577-17.53,0-28.859
	c4.495-3.328,13.56-6.242,20.331-3.28c5.271-19.65,5.703-44.142,22.3-52.468c-12.751-15.233-25.15-30.816-32.794-51.16
	c-16.885,8.306-48.518,8.551-66.897,1.313c-12.319,18.727-25.572,36.517-40.664,52.47c17.345,5.936,8.599,34.433,15.74,49.845
	c5.434-1.783,12.215-1.337,16.397,1.313c-0.816,13.276,4.993,19.93,9.18,28.203c-0.8,2.695-4.702,2.292-6.557,3.934
	c2.925,6.693,9.829,9.41,9.181,19.677c-4.473,5.146-12.276,6.96-21.644,7.214c-26.789,18.225-90.567,25.308-123.959,7.87
	c11.169-13.854,27.787-30.162,52.471-24.268c13.738-10.202,43.973-0.074,49.19-19.02c-2.231,1.051-8.265,1.051-10.496,0
	c1.556-7.408,5.602-12.324,5.247-21.644c2.022-1.695,5.788-1.645,8.526-2.624c-6.202-12.463-9.455-31.347-18.363-39.351
	c-3.796-3.413-6.803-2.677-7.214-6.56c-0.542-5.108,7.688-12.597,11.15-16.397c13.655-14.998,26.129-30.141,34.76-47.877
	c-16.392-9.053-39.02-24.083-35.417-47.224c2.712-17.417,22.079-19.683,40.664-18.364c4.839-20.741,11.278-39.882,18.364-58.374
	c-23.314,27.843-47.779,54.536-87.231,66.241c2.749,4.468,5.105,9.328,6.56,15.087c-7.465,1.412-8.577,12.258-15.086,13.117
	c-7.471,0.987-13.115-9.597-19.675-13.117c-1.19,2.309-3.191,3.806-3.937,6.56c7.166,4.423,4.457,7.043,6.561,15.084
	c1.07,4.097,4.176,6.104,3.934,9.184c-0.419,5.329-8.354,10.24-7.214,16.396c0.598,3.237,10.995,11.796,15.74,15.084
	c5.218,3.619,11.177,5.845,10.493,11.15c-0.456,3.56-5.238,4.2-7.869,6.56c-4.086,3.661-8.466,10.568-12.461,16.396
	c-12.562,18.321-23.715,42.709-30.17,64.932c-3.227-0.054-2.021-4.537-5.247-4.591C225.021,525.19,222.479,525.783,219.611,526.504z
	 M225.514,518.634c3.2-0.357,2.536,3.146,5.247,3.28c8.674-35.489,26.453-61.873,47.224-85.265
	c-0.741-5.164-10.088-5.698-14.43-3.28c-0.605,3.325-0.542,4.566,1.311,6.561c-21.713,16.105-34.534,41.109-48.534,64.931
	c2.917,3.819,4.473,11.897,2.623,18.363c-2.637-3.485-0.478-11.764-3.279-15.083c-25.957-23.234-49.324-49.061-79.361-68.211
	c1.556,4.149,2.159,12.401,0,16.396c24.699,13.039,50.314,35.476,69.524,58.371C211.957,521.991,218.604,529.338,225.514,518.634z
	 M411.127,28.694c-1.535,2.627-8.732,5.255-8.527,11.807c0.069,2.877,2.848-1.033,5.247,0c-6.245,2.988-14.297,15.81-9.183,25.579
	c-1.607,3.64-3.764,6.731-4.591,11.149c5.81-1.404,6.735-7.693,12.463-9.182c-6.087,9.688-14.558,14.399-18.366,26.235
	c-3.603,11.207,0.736,19.834,1.97,34.105c0.405,4.717-1.377,10.602,0,13.773c-4.396,8.724-12.912,13.325-11.15,28.202
	c0.825,1.361,1.697,2.674,3.277,3.28c-0.651,2.437-1.401,1.714-0.654,4.591c11.602,22.801,30.39,45.023,51.157,62.308
	c7.521,6.258,16.838,15.835,28.857,14.429c5.684-0.665,12.573-5.22,16.398-8.525c7.261-6.274,12.094-15.999,20.988-26.235
	c13.383-15.404,32.031-30.663,19.676-57.717c-1.961-4.294-5.893-8.03-6.559-13.117c-1.951-14.893,8.777-24.325,15.086-34.105
	c-0.359-48.925-26.785-93.816-71.49-97.07c-18.024-1.312-37.738,1.96-49.19,10.494C406.627,29.776,409.271,28.009,411.127,28.694z
	 M496.39,31.974c7.703,4.208,12.706,15.34,19.677,24.267c3.119,3.995,8.502,6.708,10.493,11.15
	c3.056,6.817,4.02,16.297,6.559,24.267c2.323,7.29,4.839,14.546,9.184,20.988c8.49,12.591,27.719,29.267,21.644,51.158
	c-2.076,7.481-9.365,10.671-14.43,15.741c7.129-1.633,14.806-6.148,16.396-15.741c4.247-25.612-17.473-44.402-26.891-64.276
	C526.271,72.625,524.85,42.762,496.39,31.974z M400.633,43.125c-2.84-4.811,2.477-9.443,2.623-11.15
	c-24.544,4.121-28.203,27.189-40.01,47.879c-8.126,14.242-21.109,21.689-30.824,31.482c-8.591,8.657-19.527,25.356-19.677,38.041
	c-0.197,16.753,15.138,26.607,24.924,30.825c-8.34-11.098-24.396-15.367-19.021-37.385c1.543-6.319,6.199-13.258,9.837-17.707
	c7.505-9.177,20.206-12.992,28.204-21.645C373.646,85.115,371.741,48.779,400.633,43.125z M333.076,135.603
	c-0.112,8.193-3.736,15.837-2.624,24.923c1.329,10.827,9.074,16.816,15.087,22.299c-2.141-5.802-7.302-11.916-7.87-20.332
	c-1.364-20.117,14.422-29.284,23.61-44.599c11.905-19.841,16.776-40.243,33.45-51.814c-1.606-8.021,1.273-15.852,4.591-20.988
	c-26.963,9.007-23.819,47.458-46.567,65.587c-13.71,10.927-34.731,20.898-32.794,42.632c0.63,7.052,4.771,10.635,9.184,15.085
	C326.201,159.289,328.574,143.275,333.076,135.603z M518.689,59.521c4.901,15.312,15.439,37.332,10.494,60.339
	c7.346,9.445,22.717,26.115,20.332,44.6c-1.583,12.269-10.011,21.565-23.611,23.612c14.578,0.463,24.577-11.017,25.579-22.957
	c1.755-20.889-14.607-40.094-15.085-59.028C527.259,93.802,529.5,70.135,518.689,59.521z M395.386,68.047
	c-16.074,13.222-23.007,35.585-33.451,54.438c-3.028,2.575,0.825-0.073,1.311-0.656c9.968-11.959,16.733-34.737,28.86-45.911
	C392.49,72.585,394.474,70.852,395.386,68.047z M371.773,190.04c-19.555-8.646-18.777-42.605-7.871-59.684
	c5.458-8.547,16.33-17.096,20.334-28.858c3.219-9.461,4.505-17.567,9.837-22.956c-1.454,0.36-0.935-1.253-1.967-1.313
	c-0.531,0.125-0.654,0.659-1.313,0.656c-7.344,10.962-12.15,25.93-21.644,40.009c-8.853,13.129-20.421,22.705-20.33,40.664
	C348.881,171.06,356.252,189.538,371.773,190.04z M556.075,98.217c3.2-0.542,4.862-5.395,9.182-5.902
	c7.671-0.902,16.919,7.355,20.988,12.46c10.384,13.03,17.124,36.895,17.052,56.406c2.93,1.445,5.916,2.83,9.183,3.935
	c0-3.716,0-7.433,0-11.15c6.341,7.434,4.597,22.95,7.215,34.107c5.024-3.284,9.021-7.595,13.773-11.15
	c-2.427-33.425-17.132-63.822-39.353-82.641C583.568,85.351,556.594,71.827,556.075,98.217z M384.236,108.055
	c-4.097,17.502-28.363,43.918-9.184,60.996c1.508-5.8-1.606-10.458-1.967-15.085c-1.062-13.57,8.516-22.591,13.117-32.137
	C385.576,117.209,383.767,113.771,384.236,108.055z M539.021,111.335c3.178,18.829,20.259,35.949,13.773,62.308
	C576.553,157.829,549.143,125.844,539.021,111.335z M378.989,115.926c-9.655,8.612-22.417,26.777-20.333,47.879
	c1.1,11.118,6.906,26.095,22.956,23.612c-1.28-4.624-3.322-8.484-5.246-12.462C355.493,162.215,369.112,130.743,378.989,115.926z
	 M528.527,120.517c-0.861,0.231-1.031,1.154-1.968,1.312c7.569,13.398,21.555,42.625,6.559,58.372
	c-1.781,1.499-6.681-0.123-6.559,3.28c0.545,2.91,8.55,0.516,10.495-0.657c6.688-4.03,10.313-14.937,10.494-22.299
	C547.966,143.49,532.521,130.865,528.527,120.517z M525.248,124.452c-2.535,0.963-3.144,3.851-4.59,5.903
	c8.088,9.877,19.671,35.827,5.901,47.879c2.405,2.61,7.448-2.098,8.526-3.935C544.096,158.936,529.012,135.583,525.248,124.452z
	 M360.623,125.109c-18.628,8.205-30.891,52.222-3.277,62.964c0.824-2.519-3.096-4.247-4.593-6.56
	C341.811,164.592,347.121,136.89,360.623,125.109z M387.516,125.109c-5.991,7.876-12.687,18.229-11.149,31.48
	C380.86,147.093,391.871,141.355,387.516,125.109z M519.345,133.634c-5.058,5.285,0.71,7.914,3.937,13.118
	c2.575,4.154,5.447,12.169,5.246,17.708c-0.166,4.624-2.519,5.576-2.623,11.149c4.151,0.217,4.22-4.262,4.591-6.559
	C532.719,155.282,525.104,140.909,519.345,133.634z M516.722,142.816c-3.94,10.807,7.565,17.293,7.871,28.204
	C528.666,159.904,521.475,149.406,516.722,142.816z M603.297,165.116c0,2.624,0,5.247,0,7.87c4.085,0.726,5.441,4.179,9.839,4.592
	c-1.343-2.155-0.354-6.642-0.656-9.838C609.377,166.908,606.746,165.602,603.297,165.116z M611.168,250.38
	c2.854-4.014,3.652-10.185,4.592-15.742c3.301-19.509,1.746-45.979-0.657-66.899c-1.92-2.177,0.007,5.436,0,7.215
	C615.026,196.183,612.298,227.965,611.168,250.38z M603.297,176.923c-0.088,5.99,6.119,5.687,8.527,9.182
	c1.285-0.9,0.354-4.019,1.312-5.247C608.871,180.531,607.486,177.326,603.297,176.923z M634.123,179.546
	c-5.71,3.035-8.895,8.594-14.429,11.806c0.028,2.159,1.107,3.265,0.656,5.903c4.804-3.285,8.558-7.621,13.772-10.495
	C634.123,184.355,634.123,181.951,634.123,179.546z M601.986,186.104c2.086,3.816,5.919,5.886,10.493,7.215c0-1.75,0-3.499,0-5.247
	C608.215,188.615,603.562,180.07,601.986,186.104z M634.123,188.728c-5.012,3.296-8.426,8.189-13.772,11.15
	c-0.05,9.352,0.31,19.112-0.656,27.547c5.212-6.396,20.977-4.733,22.3,3.936c3.559-6.932-7.436-14.53-15.085-10.494
	c-0.291-0.584-0.576-1.174-1.312-1.313c0.504-8.24,11.316-6.172,15.085-11.15c-0.109-1.857-1.202-2.732-1.312-4.59
	c-2.754,1.128-6.658,4.045-10.495,1.967C629.266,200.519,636.41,197.347,634.123,188.728z M599.362,193.975
	c0.388,3.328,4.083,3.35,5.247,5.903c-5.012-0.022-16.58,1.515-17.709,7.87c4.596-1.896,13.474-2.188,15.086,2.624
	c-7.508,1.894-12.197,6.605-15.086,13.119c3.045-4.381,12.196-8.193,19.021-4.592c-4.769,2.882-8.374,6.929-9.839,13.117
	c2.425,1.227,6.625-6.853,13.773-5.247c0.85-10.3,2.816-19.484,1.969-31.482C606.297,196,601.654,186.658,599.362,193.975z
	 M390.14,199.878c-9.071,3.766-14.719,22.782-15.743,36.072c-2.586,33.562,15.876,65.158,34.764,76.737
	c6.242-18.793,13.504-38.611,26.233-50.502c3.099-2.896,8.559-4.566,9.837-8.525c-6.037-1.617-9.9,5.028-13.117,8.525
	c-10.354,11.266-21.011,24.618-25.577,41.976c-13.53-11.162-26.127-33.239-28.203-57.061
	C376.59,227.122,382.499,211.13,390.14,199.878z M404.566,298.915c8.559-18.99,18.591-36.503,35.418-47.222
	c-1.826-2.548-4.911-3.833-7.215-5.903c-12.725,5.859-19.404,17.762-26.89,28.858c0.821-14.933,9.771-27.384,17.054-38.041
	c-7.223-5.69-13.262,8.393-18.367,13.117c-3.176-8.109,2.013-18.887,6.561-23.611c-5.521-8.689-13.225-15.198-19.021-23.612
	C369.302,228.239,384.409,281.487,404.566,298.915z M498.357,228.08c-0.764-0.106-1.168,0.146-1.312,0.657
	c4.559,32.165-4.751,61.068-22.3,75.424c-1.944-12.898-4.362-26.09-9.182-37.384c-1.276-2.989-2.741-8.347-7.215-7.87
	c-0.918,3.609,1.826,7.79,3.277,11.805c4.363,12.052,9.299,26.256,8.527,42.632C490.567,296.67,506.539,265.019,498.357,228.08z
	 M406.536,242.51c3.362-3.851,6.952-7.477,11.804-9.838C412.867,222.337,407.388,234.992,406.536,242.51z M495.734,230.704
	c-2.789,2.677-4.742,6.19-7.215,9.183c1.562,5.728,5.675,14.908,1.968,21.644c-3.676-3.903-4.675-13.492-10.495-13.118
	c-1.41,7.904,7.303,28.023-0.654,36.729c-1.356-11.542-3.787-22.012-9.184-29.514c-2.53,0.094-3.03,2.217-5.903,1.967
	c5.808,12.34,10.979,25.314,11.807,42.632C490.821,285.689,498.688,260.772,495.734,230.704z M430.803,244.477
	c-6.677-13.795-15.334,8.42-19.02,15.742C416.24,255.71,423.051,247.878,430.803,244.477z M617.07,241.854
	c0.475,2.004-0.671,2.39-0.654,3.936c-0.121,2.515,0.536,0.239,1.967,0.656c0.113,1.643-1.469,1.592-1.967,2.624
	c2.531,1.402,6.716,1.153,7.869,3.935c-9.982-0.79-21.359,1.495-24.923,9.182c2.498,5.81,7.523,9.091,12.462,12.462
	c1.817-8.022,20.525-13.722,20.332-23.612C632.061,246.136,625.175,239.77,617.07,241.854z M487.207,242.51
	c-2.233-0.048-2.443,1.93-3.279,3.279c1.324,4.143,4.584,6.348,5.903,10.495C491.447,251.813,488.516,246.24,487.207,242.51z
	 M477.369,251.692c-2.191,0.432-3.207,2.039-5.246,2.623c2.435,6.311,6.63,10.859,7.215,19.021
	C481.007,266.413,479.17,257.33,477.369,251.692z M577.062,260.219c3.426,5.892,5.66,13.535,1.968,21.644
	c-2.354,5.172-10.286,8.499-6.559,14.429c4.927-1.194,6.045-6.198,9.183-9.182c4.236,1.448,4.397,6.969,11.149,5.903
	c-5.827-6.417-5.114-19.373-7.872-28.859c1.942-2.108,2.449,2.762,4.592,2.624c-0.147,11.832,2.1,26.849,11.15,27.547
	c4.522,0.348,12.021-6.683,11.806-11.807c-0.29-6.904-14.583-10.863-17.052-19.02c-1.057-3.487,0.708-5.354-0.657-9.837
	C586.864,251.573,578.406,253.655,577.062,260.219z M408.503,317.278c-2.105-3.277-12.845-11.037-17.054-16.396
	c-6.055-7.711-8.897-14.132-12.46-20.988c-10.282,15.078-14.396,36.327-20.333,55.75c8.777,12.842,23.661,26.25,48.533,24.268
	c12.387-0.988,29.002-7.021,30.828-14.431c0.768-3.111-1.108-6.515-1.311-9.837c-1.389-22.412,7.271-48.29,18.363-60.34
	c4.66,4.303,6.338,11.589,9.837,17.052c-0.528-6.037-2.431-13.351-5.247-20.988c-1.942-5.268-5.425-15.692-11.149-15.741
	c-2.954-0.025-9.821,6.347-13.117,9.839C423.982,277.551,415.874,305.011,408.503,317.278z M371.773,255.627
	c-0.559-0.12-0.617,0.256-0.654,0.657c-19.196,42.456-51.809,71.497-99.038,85.92c1.919,8.578,9.677,5.319,15.084,3.277
	c39.532-14.924,65.078-43.044,89.201-72.146C374.477,267.792,372.934,261.9,371.773,255.627z M619.694,276.616
	c4.262-0.767,5.387-4.67,7.87-7.215c0.305,3.442,0.731,1.929,5.248,1.967c-7.283,4.31-19.483,9.734-18.365,20.988
	c0.486,4.885,4.963,13.079,11.15,8.527c6.257-4.603,6.902-20.084,17.709-20.332c-0.537-10.396-8.699-13.165-14.431-18.365
	C623.767,264.946,619.992,269.042,619.694,276.616z M617.07,273.336c-2.193,1.381-4.307,4.168-1.968,6.559
	C617.218,279.166,617.178,276.285,617.07,273.336z M638.06,287.109c-5.759,3.292-8.071,13.398,0,15.742
	c0.501-1.904,1.036-3.774,2.623-4.592c-4.891,13.006,5.868,39.291,17.708,23.612c-5.195-6.658-8.004-12.837-8.525-22.3
	C649.586,294.502,639.801,291.55,638.06,287.109z M561.977,287.109c-1.115-0.242-1.236,0.511-1.312,1.312
	c5.37,10.371,13.154,18.328,23.612,23.61c-1.154-6.059-4.544-9.885-7.215-14.428c-2.45-0.701-1.87,1.629-3.936,1.312
	c-3.063-1.308-5.141-3.603-4.592-8.527C565.984,289.662,563.791,288.574,561.977,287.109z M558.042,287.765
	c-3.013,1.489-5.379,3.246-5.247,5.903c0.303,6.077,13.441,4.75,9.838,16.396c2.689,1.027,7.129,0.305,9.183,1.967
	c2.139,2.018,1.353,6.955,3.935,8.527c4.906,0.971,6.128-1.743,7.215-4.591C573.294,307.931,561.626,301.89,558.042,287.765z
	 M607.889,310.721c-0.488,1.479-3.679,0.257-5.246,0.654c1.764,5.888,2.925,12.378,2.623,20.333
	c2.824-6.575,6.049-12.751,9.837-18.363c-9.123-1.546-5.105-14.498-3.278-20.989C605.777,291.202,608.445,304.221,607.889,310.721z
	 M550.172,294.324c-0.861,0.231-1.031,1.154-1.967,1.312c0.488,14.613,14.947,20.896,21.644,31.482
	c3.038-0.896,5.329-2.541,7.87-3.937c-4.303-1.602-5.625-6.181-7.215-10.494c-8.601,1.386-11.531-2.897-10.494-11.149
	C555.143,300.721,551.176,299.004,550.172,294.324z M484.584,304.161c-2.352,2.023-4.479,4.267-5.903,7.214
	c7.09,9.09,12.451,23.917,20.989,31.483c10.45,9.264,26.844-2.261,36.072-8.526c7.65-5.193,16.4-9.957,20.333-17.054
	c-1.748-0.656-2.163-2.647-3.28-3.934c-10.617,7.744-19.885,16.845-34.76,20.33c-1.027,2.036-1.947,4.177-3.281,5.903
	c-2.06,0.312-2.679-0.816-3.279-1.967c-2.109,1.169-2.243,4.315-5.246,4.593c-3.699-1.339-1.578-8.511,0-10.496
	C497.034,324.505,488.738,316.403,484.584,304.161z M287.165,361.879c0.222-4.814-2.645-6.536-3.279-10.494
	c-7.673,0.017-14.767-1.563-15.084-10.493c0.69-2.903,2.968-0.806,4.59-1.97c-1.74-3.066-5.126-4.491-7.87-6.557
	c-2.233-0.486-1.081,2.415-2.623,2.623c1.34,6.229,4.553,10.435,9.183,15.74C277.109,356.493,278.77,361.312,287.165,361.879z
	 M260.274,336.955c-4.518,0.659-4.206,5.463-2.623,9.184c1.692,1.588,5.084,1.473,6.56,3.276c-1.235,3.561-0.533,7.563,1.311,9.84
	c2.226,0.179,5.319-0.507,6.56,0.657c2.159,1.993,1.269,7.037,3.28,9.183c5.004,0.849,5.789-2.52,9.181-3.282
	C273.68,358.97,265.138,349.8,260.274,336.955z M358,340.235c-0.713,0.162-0.443,1.302-1.311,1.312
	c6.992,21.537,43.655,32.794,67.555,22.3c5.625-2.471,13.871-5.481,14.43-12.463c-2.912-1.521-4.617,2.021-6.561,3.28
	c-7.75,5.025-21.854,9.834-36.073,8.526C380.948,361.801,364.13,349.894,358,340.235z M254.371,343.515
	c-0.76-0.106-1.166,0.145-1.31,0.654c0.319,9.202,4.2,16.863,10.493,22.3c3.861,3.339,10.782,9.053,14.43,5.247
	c-5.06-0.625-6.514-4.854-7.216-9.837c-8.636,1.2-11.078-5.025-9.837-11.807C256.368,350.264,254.935,347.323,254.371,343.515z
	 M335.699,394.672c-13.227-18.545-2.426-45.921,22.301-43.943c-0.721-2.338-2.789-3.331-3.277-5.903
	c-22.669-3.099-40.955,3.099-38.044,24.27C318.288,380.784,327.356,388.272,335.699,394.672z M363.246,409.756
	c-8.842-12.506-12.158-43.164,3.937-49.844c-6.13-13.55-31.44-3.724-34.106,9.183c-2.735,13.253,4.967,24.585,11.807,32.794
	C350.948,404.565,356.02,408.24,363.246,409.756z M440.641,355.976c22.164,11.348,3.992,44.755-9.838,53.127
	c11.845-4.19,32.623-18.945,32.138-38.041C462.692,361.268,453.726,352.17,440.641,355.976z M228.138,379.589
	c-2.236,8.257-10.2,10.787-19.021,12.46c-0.482,17.046-9.184,22.562-20.989,29.514c-6.005,3.539-19.322,14.561-4.591,17.71
	c22.095,4.722,33.971-20.792,38.697-36.729c2.524-3.376,7.185-4.62,10.493-7.214c0.902-3.688,0.651-8.532,3.937-9.837
	c2.703,2.567-0.984,6.933-0.656,11.149c4.817,4.802,11.246,7.99,15.74,13.114c1.657-5.994,3.944-11.357,7.87-15.084
	c-1.991-4.571-6.894-9.711-4.59-16.396c-2.042-3.208-5.851-4.644-6.56-9.181c3.541-4.767,8.731-7.296,3.279-13.119
	c-5.9,11.476-26.509,10.963-38.04,15.086c-3.032,1.084-5.432,6.31-7.214,9.184c4.44,1.147,8.134-4.102,14.427-3.282
	c-4.414,5.642-13.979,6.135-20.987,9.183c-2.372,8.559-5.422,16.439-5.246,27.547c7.929-4.094,10.691-13.356,11.807-24.267
	C215.778,388.217,222.88,384.824,228.138,379.589z M432.77,362.535c13.939,15.82-5.27,43.8-18.363,51.814
	c13.966-0.228,38.719-26.071,34.761-45.911C447.947,362.324,438.463,355.183,432.77,362.535z M373.086,413.036
	c-4.235-14.939-4.166-38.978,4.59-48.534c-3.213-0.721-5.403-2.469-8.526-3.28c-16.72,6.79-10.664,40.27-1.311,50.504
	C369.676,412.075,371.247,412.689,373.086,413.036z M412.438,369.749c6.324,17.792-3.699,37.141-9.838,46.567
	c18.634-4.361,33.333-22.156,32.794-46.567C431.107,358.42,422.703,370.387,412.438,369.749z M377.02,414.35
	c20.35,8.382,20.747-25.9,19.021-44.601c-5.903-0.436-10.568-2.108-15.084-3.937C370.577,374.662,371.883,400.645,377.02,414.35z
	 M398.664,370.405c1.942,15.497-0.198,35.916-7.871,45.911c13.576,0.974,21.727-21.516,21.645-34.761
	c-0.02-3.302-0.935-6.427-1.968-9.184c0.185-1.057-0.619-1.129-0.656-1.967C406.099,370.405,402.381,370.405,398.664,370.405z
	 M135.66,434.025c28.462,20.288,53.255,44.251,78.048,68.211c14.019-22.492,26.244-46.777,46.566-62.964
	c-0.13-4.286,1.289-7.019,2.624-9.84c2.11-0.752,4.568-1.55,6.56-0.653c-12.538-9.763-23.104-21.497-37.387-29.517
	c-1.871,1.628-4,2.997-6.558,3.937c-3.655,17.55-22.42,47.803-45.256,38.04c-16.71-7.142,2.948-22.871,12.463-26.233
	c0.435-14.211,0.04-29.258,10.493-33.45c-2.439-3.462-5.663-6.144-10.493-7.214c-2.439,0.841-2.396,4.16-3.28,6.557
	C164.645,391.739,148.667,411.395,135.66,434.025z M434.737,411.726c7.787,21.945,22.614,36.851,34.762,54.438
	c-22.561,7.39-17.349,42.556-28.202,61.651c2.07-0.32,2.316,1.182,4.59,0.656c7.767-15.012,8.028-31.203,18.364-42.631
	c4.388-4.849,14.917-8.457,15.741-16.396c0.889-8.543-14.184-23.798-18.365-30.171c-6.815-10.395-13.584-21.716-15.74-33.45
	C442.815,405.942,438.355,410.002,434.737,411.726z M339.636,527.16c-10.67-16.994,2.583-53.869-20.333-58.374
	c3.117-5.153,7.852-8.63,11.807-13.116c11.246-12.754,21.619-27.227,30.826-42.634c-4.408-0.838-8.078-2.415-11.149-4.591
	c-6.448,13.208-21.722,33.31-34.107,47.225c-3.592,4.035-11.616,11.44-11.147,15.084c0.374,2.922,6.229,4.862,7.871,6.56
	c7.827,8.094,12.863,27.944,17.707,40.664C332.48,521.58,333.169,529.207,339.636,527.16z M340.949,518.634
	c-0.152,2.991,1.102,4.579,1.967,6.557c2.607,0.206,3.293-1.513,5.903-1.31c-0.716,5.1-14.876,8.996-22.301,5.246
	c1.212-0.974,3.117-1.257,5.247-1.312c-0.571-2.709-2.055-4.505-2.623-7.214c-2.349,0.713-5.327,0.795-7.214,1.967
	c0.593,7.852-1.74,10.972-3.937,17.054c5.81-0.531,10.875-1.805,12.46-6.561c10.182,4.161,17.716,16.781,32.141,12.464
	c-4.46-7.129-9.864-13.312-8.527-26.237C350.481,518.281,345.462,518.708,340.949,518.634z M425.557,521.914
	c-1.014,8.169-3.544,14.819-5.903,21.644c9.877,3.567,25.593,1.759,30.824-6.561c5.896,1.757,6.856,8.449,13.12,9.837
	c0.395-2.396-3.748-7.408-3.28-13.773c0.224-3.074,2.122-4.779,1.967-7.87c-2.612-1.54-5.599-2.706-9.837-2.623
	c-0.782,1.844-1.477,3.771-1.97,5.903c2.071,0.32,2.316-1.183,4.593-0.656c-4.523,8.893-21.83,1.889-25.58-3.934
	c3.102,0.832,6.082,1.79,9.184,2.623C445.834,517.097,430.112,518.631,425.557,521.914z M227.481,584.875
	c35.982,11.938,91.994,6.923,117.401-11.147c7.678,1.18,16.552-1.7,20.986-5.903c-1.596-7.806-6.732-12.068-9.837-18.366
	c-10.763-1.26-16.772-7.275-23.61-12.461c-7.915,9.138-13.858,20.248-28.859,22.301c-10.638-3.856-21.713,1.428-28.857,5.246
	C252.946,557.881,237.195,573.058,227.481,584.875z M426.211,548.804c-0.177,7.046-4.863,11.155-7.215,17.708
	c8.773,11.945,24.836,9.383,40.664,10.493c4.537,0.32,9.693,2.772,15.086,3.937c29.9,6.45,64.486,13.248,96.414,4.59
	c1.085-1.759-3.732-5.719-6.559-7.87c-7.247-5.514-22.339-16.29-32.139-17.707c-5.451-0.79-10.388,0.096-13.773,2.623
	c-7.204-2.223-13.665-4.267-24.267-3.279c-5.299,0.493-10.371,3.608-13.774,3.279c-5.336-0.515-15.281-10.034-20.988-14.43
	c-3.227-2.487-5.523-5.11-7.869-7.87C446.037,545.893,438.308,549.532,426.211,548.804z"/>
<path fill-rule="evenodd" clip-rule="evenodd" fill="#FFFFCC" d="M205.838,514.697c-19.21-22.896-44.825-45.332-69.524-58.371
	c2.159-3.995,1.556-12.247,0-16.396c30.037,19.15,53.404,44.977,79.361,68.211c2.802,3.319,0.643,11.598,3.279,15.083
	c1.85-6.466,0.294-14.544-2.623-18.363c14-23.821,26.821-48.825,48.534-64.931c-1.853-1.994-1.916-3.235-1.311-6.561
	c4.342-2.418,13.688-1.884,14.43,3.28c-20.771,23.392-38.55,49.775-47.224,85.265c-2.711-0.134-2.047-3.638-5.247-3.28
	C218.604,529.338,211.957,521.991,205.838,514.697z M266.178,446.486c-19.183,12.589-30.749,44.293-40.664,70.178
	c0.713-0.16,0.446-1.303,1.311-1.311C239.352,491.805,248.463,464.845,266.178,446.486z M248.469,460.916
	c-12.936,11.11-18.477,29.621-26.234,45.911C232.173,492.717,239.461,475.957,248.469,460.916z M165.174,467.474
	c6.632,7.145,18.614,14.614,26.891,22.3C185.056,480.388,174.994,474.049,165.174,467.474z M172.387,476
	c2.806,3.801,7.351,9.352,11.807,13.773c4.868,4.831,9.661,9.367,14.431,14.43c4.561,4.847,8.97,10.606,14.427,13.117
	C201.53,501.517,187.629,488.087,172.387,476z"/>
<path fill-rule="evenodd" clip-rule="evenodd" fill="#FFDBC0" d="M406.536,28.694c11.452-8.533,31.166-11.805,49.19-10.494
	c44.705,3.253,71.131,48.145,71.49,97.07c-6.309,9.781-17.037,19.212-15.086,34.105c0.666,5.086,4.598,8.823,6.559,13.117
	c12.355,27.055-6.293,42.313-19.676,57.717c-8.895,10.236-13.728,19.961-20.988,26.235c-3.825,3.305-10.715,7.861-16.398,8.525
	c-12.02,1.406-21.336-8.17-28.857-14.429c-20.768-17.284-39.556-39.507-51.157-62.308c-0.747-2.877,0.003-2.155,0.654-4.591
	c-1.58-0.606-2.452-1.919-3.277-3.28c-1.762-14.877,6.755-19.478,11.15-28.202c-1.377-3.171,0.405-9.056,0-13.773
	c-1.233-14.271-5.572-22.899-1.97-34.105c3.809-11.836,12.279-16.547,18.366-26.235c-5.728,1.489-6.653,7.778-12.463,9.182
	c0.827-4.418,2.983-7.509,4.591-11.149c-5.114-9.769,2.938-22.591,9.183-25.579c-2.399-1.033-5.178,2.877-5.247,0
	c-0.205-6.552,6.992-9.179,8.527-11.807C409.271,28.009,406.627,29.776,406.536,28.694z M407.189,106.088
	c3.342-12.524,2.898-29.012,19.678-26.892c6.8,0.859,12.172,6.057,17.053,10.495c4.674,4.249,8.209,12.567,14.43,10.494
	c-7.039-9.733-34.082-39.055-48.536-17.708C406.491,87.386,405.76,96.898,407.189,106.088z M471.467,100.84
	c-1.861,5.899,2.125,11.355,5.247,14.43c-4.245,4.342-7.047,10-5.903,18.364c3.131,22.9,37.545,22.78,41.976,1.312
	c2.448-11.857-2.802-22.374-13.116-26.234c0.82-5.484,10.253-11.197,14.428-5.248c-9.977-13.428-18.092,11.482-29.514,11.15
	C476.203,114.371,475.657,106.889,471.467,100.84z M443.92,104.12c-24.397-6.158-38.895,19.506-26.891,38.041
	c14.225,21.965,54.342,7.829,42.631-23.612C457.795,113.54,450.693,105.83,443.92,104.12z M468.188,144.129
	c3.164,14.764,17.684,23.855,16.396,45.254c-9.629-1.086-17.146-9.96-20.333-19.675c-1.631,13.876,9.306,20.864,20.333,24.267
	C494.807,178.408,475.414,155.718,468.188,144.129z M418.996,190.04c3.32-1.271,5.261-3.921,8.527-5.247
	c-1.398,23.541,22.396,36.189,43.943,26.235c-1.932-3.099-5.887-0.144-7.869,0c-18.444,1.337-32.062-5.48-31.484-24.924
	c-0.216-2.839,3.633-1.614,3.28-4.591C429.304,179.034,419.506,182.721,418.996,190.04z M493.766,190.04
	c-1.309,12.078-13.942,10.591-20.986,5.247c-5.355,7.308,2.314,13.05,7.869,13.117C489.82,208.516,493.294,198.82,493.766,190.04z
	 M443.92,190.696c-5.232,13.629,26.919,21.944,21.645,2.624C460.912,195.265,446.293,200.173,443.92,190.696z M436.707,215.619
	c0.111,12.006,34.143,23.881,36.072,5.248C463.375,233.454,444.403,223.463,436.707,215.619z"/>
<path fill-rule="evenodd" clip-rule="evenodd" fill="#663300" d="M496.39,31.974c7.703,4.208,12.706,15.34,19.677,24.267
	c3.119,3.995,8.502,6.708,10.493,11.15c3.056,6.817,4.02,16.297,6.559,24.267c2.323,7.29,4.839,14.546,9.184,20.988
	c8.49,12.591,27.719,29.267,21.644,51.158c-2.076,7.481-9.365,10.671-14.43,15.741c7.129-1.633,14.806-6.148,16.396-15.741
	c4.247-25.612-17.473-44.402-26.891-64.276C526.271,72.625,524.85,42.762,496.39,31.974z"/>
<path fill-rule="evenodd" clip-rule="evenodd" fill="#663300" d="M400.633,43.125c-2.84-4.811,2.477-9.443,2.623-11.15
	c-24.544,4.121-28.203,27.189-40.01,47.879c-8.126,14.242-21.109,21.689-30.824,31.482c-8.591,8.657-19.527,25.356-19.677,38.041
	c-0.197,16.753,15.138,26.607,24.924,30.825c-8.34-11.098-24.396-15.367-19.021-37.385c1.543-6.319,6.199-13.258,9.837-17.707
	c7.505-9.177,20.206-12.992,28.204-21.645C373.646,85.115,371.741,48.779,400.633,43.125z"/>
<path fill-rule="evenodd" clip-rule="evenodd" d="M333.076,135.603c-0.112,8.193-3.736,15.837-2.624,24.923
	c1.329,10.827,9.074,16.816,15.087,22.299c-2.141-5.802-7.302-11.916-7.87-20.332c-1.364-20.117,14.422-29.284,23.61-44.599
	c11.905-19.841,16.776-40.243,33.45-51.814c-1.606-8.021,1.273-15.852,4.591-20.988c-26.963,9.007-23.819,47.458-46.567,65.587
	c-13.71,10.927-34.731,20.898-32.794,42.632c0.63,7.052,4.771,10.635,9.184,15.085C326.201,159.289,328.574,143.275,333.076,135.603
	z"/>
<path fill-rule="evenodd" clip-rule="evenodd" fill="#663300" d="M518.689,59.521c4.901,15.312,15.439,37.332,10.494,60.339
	c7.346,9.445,22.717,26.115,20.332,44.6c-1.583,12.269-10.011,21.565-23.611,23.612c14.578,0.463,24.577-11.017,25.579-22.957
	c1.755-20.889-14.607-40.094-15.085-59.028C527.259,93.802,529.5,70.135,518.689,59.521z"/>
<path fill-rule="evenodd" clip-rule="evenodd" fill="#663300" d="M395.386,68.047c-16.074,13.222-23.007,35.585-33.451,54.438
	c-3.028,2.575,0.825-0.073,1.311-0.656c9.968-11.959,16.733-34.737,28.86-45.911C392.49,72.585,394.474,70.852,395.386,68.047z"/>
<path fill-rule="evenodd" clip-rule="evenodd" fill="#330000" d="M484.584,114.614c11.422,0.333,19.537-24.578,29.514-11.15
	c-4.175-5.949-13.607-0.236-14.428,5.248c10.314,3.86,15.564,14.376,13.116,26.234c-4.431,21.469-38.845,21.589-41.976-1.312
	c-1.144-8.364,1.658-14.022,5.903-18.364c-3.122-3.075-7.108-8.531-5.247-14.43C475.657,106.889,476.203,114.371,484.584,114.614z
	 M478.681,116.582c-10.277,10.903-2.717,30.671,10.495,32.137c21.598,2.398,29.393-29.052,10.494-38.697
	C494.477,113.78,488.549,119.606,478.681,116.582z"/>
<path fill-rule="evenodd" clip-rule="evenodd" fill="#993300" d="M360.623,125.109c-18.628,8.205-30.891,52.222-3.277,62.964
	c0.824-2.519-3.096-4.247-4.593-6.56C341.811,164.592,347.121,136.89,360.623,125.109z"/>
<path fill-rule="evenodd" clip-rule="evenodd" fill="#B7B71A" d="M430.803,244.477c-6.677-13.795-15.334,8.42-19.02,15.742
	C416.24,255.71,423.051,247.878,430.803,244.477z"/>
<path fill-rule="evenodd" clip-rule="evenodd" fill="#A17E60" d="M266.178,446.486c-19.183,12.589-30.749,44.293-40.664,70.178
	c0.713-0.16,0.446-1.303,1.311-1.311C239.352,491.805,248.463,464.845,266.178,446.486z"/>
<path fill-rule="evenodd" clip-rule="evenodd" fill="#A17E60" d="M248.469,460.916c-12.936,11.11-18.477,29.621-26.234,45.911
	C232.173,492.717,239.461,475.957,248.469,460.916z"/>
<path fill-rule="evenodd" clip-rule="evenodd" fill="#A17E60" d="M165.174,467.474c6.632,7.145,18.614,14.614,26.891,22.3
	C185.056,480.388,174.994,474.049,165.174,467.474z"/>
<path fill-rule="evenodd" clip-rule="evenodd" fill="#FFFFFF" d="M194.022,431.319c0,0,2.047,3.419-1.596,4.556
	c-3.643,1.138-5.689,0.913-7.969-1.366s-4.329-3.419-2.962-5.012c1.366-1.594,3.872-2.96,3.872-2.96L194.022,431.319z"/>
<path fill-rule="evenodd" clip-rule="evenodd" fill="#FF9966" d="M184.968,425.027c5.052,2.1,9.768,2.167,11.075,6.597
	C200.18,445.688,168.251,433.255,184.968,425.027z M193.879,432.254c-3.305-1.404-5.77-4.388-9.632-4.75
	c-0.374,1.129-1.433,1.927-2.146,2.893C183.951,436.369,193.833,439.228,193.879,432.254z"/>
<ellipse fill-rule="evenodd" clip-rule="evenodd" fill="#FFFFFF" cx="486.496" cy="131.821" rx="2.739" ry="2.647"/>
<ellipse fill-rule="evenodd" clip-rule="evenodd" fill="#FFFFFF" cx="443.966" cy="129.259" rx="2.738" ry="2.647"/>
</svg>
